#!OML:ASF H:\LiuWeirdWalks\Patient Classification 1\Patient 1\Session 1\male.ASF
:FULLY-SPECIFIED
:DEGREES
820
root -0.243333 18.3188 -3.31679 5.26983 7.61681 -3.0359
lowerback 3.77682 -2.52035 -0.229191
upperback -1.58949 -3.287 2.59756
thorax -3.58918 -1.60045 3.02984
lowerneck -14.5687 0.0762191 4.95054
upperneck 23.1933 0.368326 -6.04742
head 9.75942 -0.0848973 -2.90784
rclavicle 5.32494e-014 -4.96962e-015
rhumerus -42.4149 -5.38069 -79.5671
rradius 37.901
rwrist -11.247
rhand -16.5975 -4.89605
rfingers 7.12502
rthumb 9.62369 -34.6562
lclavicle 5.32494e-014 -4.96962e-015
lhumerus -36.0675 -10.8445 91.207
lradius 41.0679
lwrist 15.5681
lhand -13.7419 -2.34504
lfingers 7.12502
lthumb 12.378 27.2685
rfemur -11.8219 -3.75747 29.7254
rtibia 20.0887
rfoot -9.10606 -15.3126
rtoes 2.19215
lfemur -9.11298 5.90957 -7.89324
ltibia 60.3403
lfoot 8.82805 -2.41127
ltoes -14.5185
821
root -0.250828 18.3167 -3.27658 5.09859 7.73907 -3.19041
lowerback 3.83525 -2.44321 -0.019849
upperback -1.56031 -3.17154 2.61624
thorax -3.60821 -1.54734 2.92674
lowerneck -14.5329 0.0459378 4.91893
upperneck 23.2679 0.333341 -6.02508
head 9.77674 -0.100354 -2.90028
rclavicle -1.35671e-014 -2.5842e-015
rhumerus -42.3792 -5.25869 -79.6475
rradius 38.0623
rwrist -11.3092
rhand -16.5902 -4.91278
rfingers 7.12502
rthumb 9.63074 -34.6726
lclavicle -1.35671e-014 -2.5842e-015
lhumerus -36.3075 -10.7928 91.1675
lradius 41.3485
lwrist 15.56
lhand -13.7795 -2.45194
lfingers 7.12502
lthumb 12.3417 27.1638
rfemur -11.3779 -3.79738 29.9185
rtibia 19.8296
rfoot -9.14119 -15.3924
rtoes 2.15795
lfemur -9.95351 5.96829 -7.66422
ltibia 61.5851
lfoot 7.97447 -2.35867
ltoes -14.8922
822
root -0.257488 18.3142 -3.23687 4.93385 7.84446 -3.33643
lowerback 3.88282 -2.35764 0.19052
upperback -1.53114 -3.04495 2.62848
thorax -3.62132 -1.48884 2.81487
lowerneck -14.5017 0.0310441 4.93951
upperneck 23.3334 0.318394 -6.05075
head 9.79294 -0.107396 -2.91593
rclavicle 6.71147e-014 -5.36719e-015
rhumerus -42.3304 -5.15465 -79.7208
rradius 38.2043
rwrist -11.3715
rhand -16.5928 -4.9412
rfingers 7.12502
rthumb 9.62827 -34.7012
lclavicle 6.71147e-014 -5.36719e-015
lhumerus -36.5484 -10.7431 91.1213
lradius 41.6331
lwrist 15.5567
lhand -13.8165 -2.58331
lfingers 7.12502
lthumb 12.306 27.0346
rfemur -10.9584 -3.83299 30.0979
rtibia 19.5998
rfoot -9.1798 -15.4619
rtoes 2.10945
lfemur -10.7793 5.99323 -7.46579
ltibia 62.7436
lfoot 7.14163 -2.28686
ltoes -15.2405
823
root -0.263722 18.3113 -3.19749 4.77197 7.94191 -3.4727
lowerback 3.92262 -2.26848 0.392762
upperback -1.50348 -2.91407 2.63795
thorax -3.63067 -1.42809 2.70386
lowerneck -14.4855 0.0241152 4.97595
upperneck 23.405 0.314581 -6.0934
head 9.81486 -0.109944 -2.93925
rclavicle -5.57839e-015 -9.93923e-015
rhumerus -42.2762 -5.0681 -79.7817
rradius 38.3231
rwrist -11.4175
rhand -16.5798 -4.93069
rfingers 7.12502
rthumb 9.6408 -34.6901
lclavicle -5.57839e-015 -9.93923e-015
lhumerus -36.7873 -10.6837 91.0683
lradius 41.9091
lwrist 15.5419
lhand -13.8209 -2.67065
lfingers 7.12502
lthumb 12.3018 26.9475
rfemur -10.5594 -3.8517 30.2663
rtibia 19.3996
rfoot -9.21835 -15.5464
rtoes 2.05018
lfemur -11.5868 5.97934 -7.29365
ltibia 63.8105
lfoot 6.31354 -2.18788
ltoes -15.5897
824
root -0.26876 18.3081 -3.15822 4.61339 8.02381 -3.58304
lowerback 3.95556 -2.17138 0.579559
upperback -1.47727 -2.77371 2.63976
thorax -3.63683 -1.36236 2.59245
lowerneck -14.4985 0.00868644 4.97993
upperneck 23.5066 0.300263 -6.10968
head 9.85245 -0.117523 -2.9501
rclavicle 1.32689e-014 -8.34896e-015
rhumerus -42.2117 -5.00496 -79.8212
rradius 38.4033
rwrist -11.4431
rhand -16.5503 -4.86303
rfingers 7.12502
rthumb 9.66924 -34.6211
lclavicle 1.32689e-014 -8.34896e-015
lhumerus -37.0258 -10.6314 91.0202
lradius 42.1737
lwrist 15.5493
lhand -13.814 -2.69745
lfingers 7.12502
lthumb 12.3085 26.9203
rfemur -10.1767 -3.87486 30.4021
rtibia 19.226
rfoot -9.25637 -15.6211
rtoes 1.97522
lfemur -12.3658 5.93368 -7.17122
ltibia 64.7832
lfoot 5.47165 -2.05099
ltoes -16.0432
825
root -0.273253 18.3046 -3.11901 4.45492 8.09167 -3.67399
lowerback 3.98344 -2.06802 0.748973
upperback -1.45211 -2.62621 2.63547
thorax -3.6401 -1.29276 2.48361
lowerneck -14.5261 -0.0228252 4.92745
upperneck 23.6413 0.265966 -6.07755
head 9.90348 -0.133966 -2.93765
rclavicle 2.06239e-014 -1.78906e-014
rhumerus -42.1456 -4.95964 -79.849
rradius 38.4669
rwrist -11.4656
rhand -16.5074 -4.75028
rfingers 7.12502
rthumb 9.7106 -34.5064
lclavicle 2.06239e-014 -1.78906e-014
lhumerus -37.2669 -10.5846 90.974
lradius 42.4187
lwrist 15.6124
lhand -13.8211 -2.69489
lfingers 7.12502
lthumb 12.3016 26.9233
rfemur -9.80559 -3.88424 30.5164
rtibia 19.0778
rfoot -9.29232 -15.7067
rtoes 1.88034
lfemur -13.1124 5.85743 -7.08551
ltibia 65.6592
lfoot 4.60725 -1.87082
ltoes -16.614
